<svg width="436" height="11" viewBox="0 0 436 11" fill="none" xmlns="http://www.w3.org/2000/svg">
<path d="M130.806 0.00390625H132.426L134.825 7.27601C135.089 8.06748 135.474 9.60732 135.474 9.60732H135.502C135.502 9.60732 135.883 8.04006 136.135 7.27601L138.503 0.00390625H140.064L136.237 10.9121H134.589L130.806 0.00390625Z" fill="#383838"/>
<path d="M167.457 0.00390625H169.137L173.168 10.9121H171.52L170.431 7.73052H166.12L165.003 10.9121H163.457L167.461 0.00390625H167.457ZM166.529 6.55899H170.033L168.987 3.51066C168.617 2.45667 168.326 1.19503 168.326 1.19503H168.283C168.283 1.19503 167.961 2.49977 167.607 3.51066L166.533 6.55899H166.529Z" fill="#383838"/>
<path d="M196.867 0.003919H198.44L202.928 6.83719C203.459 7.64433 204.152 9.00785 204.152 9.00785H204.195C204.195 9.00785 204.092 7.58556 204.092 6.67655V0.003919H205.505V10.9121H203.943L199.467 4.07881C198.936 3.25599 198.216 1.92382 198.216 1.92382H198.189C198.189 1.92382 198.275 3.34611 198.275 4.22378V10.9082H196.863V0L196.867 0.003919Z" fill="#383838"/>
<path d="M229.598 0.00390625H233.645C236.913 0.00390625 238.53 2.23334 238.53 5.50109C238.53 8.76883 236.823 10.9121 233.543 10.9121H229.598V0.00390625ZM233.484 9.60732C235.958 9.60732 236.972 8.00871 236.972 5.50109C236.972 2.99346 236.06 1.30865 233.574 1.30865H231.116V9.60732H233.484Z" fill="#383838"/>
<path d="M262.965 0.00390625H270.749V1.32433H264.463V4.62342H270.143V5.8694H264.463V9.54855H270.91V10.9121H262.961V0.00390625H262.965Z" fill="#383838"/>
<path d="M295.492 0.003919H297.065L301.553 6.83719C302.084 7.64433 302.777 9.00785 302.777 9.00785H302.82C302.82 9.00785 302.717 7.58556 302.717 6.67655V0.003919H304.13V10.9121H302.568L298.092 4.07881C297.561 3.25599 296.841 1.92382 296.841 1.92382H296.814C296.814 1.92382 296.9 3.34611 296.9 4.22378V10.9082H295.488V0L295.492 0.003919Z" fill="#383838"/>
<path d="M328.718 0.00390625H336.502V1.32433H330.216V4.62342H335.896V5.8694H330.216V9.54855H336.663V10.9121H328.714V0.00390625H328.718Z" fill="#383838"/>
<path d="M361.245 0.003919H362.818L367.306 6.83719C367.837 7.64433 368.529 9.00785 368.529 9.00785H368.573C368.573 9.00785 368.47 7.58556 368.47 6.67655V0.003919H369.882V10.9121H368.321L363.845 4.07881C363.314 3.25599 362.594 1.92382 362.594 1.92382H362.567C362.567 1.92382 362.653 3.34611 362.653 4.22378V10.9082H361.241V0L361.245 0.003919Z" fill="#383838"/>
<path d="M393.976 0.00390625H398.023C401.291 0.00390625 402.908 2.23334 402.908 5.50109C402.908 8.76883 401.201 10.9121 397.921 10.9121H393.976V0.00390625ZM397.862 9.60732C400.336 9.60732 401.35 8.00871 401.35 5.50109C401.35 2.99346 400.438 1.30865 397.952 1.30865H395.494V9.60732H397.862Z" fill="#383838"/>
<path d="M427.343 0.00390625H435.127V1.32433H428.841V4.62342H434.521V5.8694H428.841V9.54855H435.288V10.9121H427.339V0.00390625H427.343Z" fill="#383838"/>
<path d="M0.00393404 0.00390625H7.78773V1.32433H1.50248V4.62342H7.18202V5.8694H1.50248V9.54855H7.94899V10.9121H0V0.00390625H0.00393404Z" fill="#383838"/>
<path d="M33.2725 0.00390625H34.7749V9.54855H40.4427V10.9121H33.2764V0.00390625H33.2725Z" fill="#383838"/>
<path d="M65.25 0.011754H66.7525V3.38529C66.7525 4.11799 66.7249 4.86636 66.6935 5.39531L71.9758 0H73.8598L69.4585 4.38442L74.2138 10.9238H72.4635L68.4162 5.35221L66.7525 6.97824V10.9238H65.25V0.015673V0.011754Z" fill="#383838"/>
<path d="M98.6328 0.00390625H106.417V1.32433H100.131V4.62342H105.811V5.8694H100.131V9.54855H106.578V10.9121H98.6289V0.00390625H98.6328Z" fill="#383838"/>
</svg>
